<svg xmlns="http://www.w3.org/2000/svg" viewBox="0 0 32 32" fill="none">
  <path d="M16 4a12 12 0 0 0-10.4 18L4 28l6.2-1.6A12 12 0 1 0 16 4z" stroke="currentColor" stroke-width="1.8"/>
  <path d="M11 12.5c.3-1 1-1.2 1.6-1.2s1 0 1.3.7c.3.7 1 2 .9 2.4-.1.5-.6.8-.9 1.2-.3.3-.5.6-.2 1.2.3.6 1.3 2 2.7 2.8 1.9 1 2.3.7 2.7.5.4-.2 1.1-1.3 1.4-1.7.3-.4.6-.3 1-.2.4.2 2.4 1.2 2.8 1.4.4.2.7.3.8.5.1.4.1 1.4-.5 2.2-.6.9-2.6 1.6-3.7 1.4-1.1-.2-3.6-1-6-3.2-2.8-2.5-3.6-4.9-3.8-5.6-.2-.7-.7-2 .1-3.4z" fill="currentColor"/>
</svg>
